<svg width="564" height="693" viewBox="0 0 564 693" fill="none" xmlns="http://www.w3.org/2000/svg">
<path d="M23.3147 227.056C20.8927 226.951 16.9963 227.162 12.5734 228.531C10.9938 229.057 1.72673 232.006 1.83204 236.113C1.83204 237.903 3.72759 239.167 5.93905 240.641C10.2566 243.59 14.4689 244.432 20.7873 245.696C26.4739 246.854 31.1075 247.696 34.1614 248.223C37.11 251.382 41.9541 255.7 49.0097 258.754C51.1158 259.701 60.6988 263.703 73.1251 262.229C76.3896 261.913 79.0223 261.281 80.8125 260.755C78.3904 266.757 75.5471 274.76 73.1251 284.449C71.2295 292.031 67.965 305.615 67.965 323.202C67.965 349.213 75.2312 369.01 78.7063 377.646C82.2868 386.281 86.4991 396.39 95.6608 407.342C101.663 414.503 114.827 430.405 136.731 435.565C139.574 436.196 146.524 437.671 159.898 436.618C170.008 435.775 192.859 432.827 224.136 415.977C240.037 407.448 261.625 395.758 281.212 372.17C296.692 353.53 319.86 316.673 307.96 302.14C305.644 299.297 302.59 298.139 299.746 297.086C288.794 292.979 275.315 295.927 250.989 310.67C237.72 318.674 236.141 321.096 198.546 348.476C190.016 354.689 177.695 363.429 160.004 366.588C148.946 368.589 143.786 366.904 141.469 366.062C129.148 361.323 124.304 348.16 120.935 338.893C114.405 321.201 116.301 305.51 117.354 298.139C118.828 286.765 122.093 277.92 126.621 265.915C132.202 250.856 133.782 251.382 136.941 240.746C140.206 229.9 143.681 217.263 139.047 203.994C137.468 199.571 134.73 191.884 127.253 188.935C121.777 186.724 116.301 188.093 113.879 188.935C111.878 181.564 110.193 173.455 108.719 164.714C106.507 151.235 105.77 138.809 105.665 127.962C103.138 126.383 99.0307 124.382 93.8706 123.434C87.131 122.17 81.5496 123.118 75.863 124.487C60.6988 127.962 50.6946 130.279 37.8471 137.124C31.8446 140.388 23.736 145.338 15.2061 152.709C15.7326 164.925 16.7856 177.878 18.2599 191.462C19.6289 203.783 21.3139 215.788 23.3147 227.056Z" fill="white"/>
<path d="M119.882 208.733C114.932 210.207 109.561 207.048 108.298 201.993C106.823 195.991 112.51 190.515 117.986 189.461C129.359 187.25 136.625 198.939 137.468 208.733C138.205 217.894 136.836 228.109 134.941 237.06C132.834 246.959 128.201 255.91 124.304 265.072C117.354 281.5 114.511 300.139 115.459 317.936C116.196 333.311 120.829 349.318 132.202 360.27C143.365 370.906 159.793 376.382 174.641 370.695C176.537 369.958 175.694 366.904 173.799 367.641C154.738 375.013 134.203 362.903 125.463 345.738C115.459 326.15 117.249 300.771 122.514 280.131C125.357 269.074 130.833 259.175 134.835 248.644C138.416 239.167 139.679 229.057 140.416 219.053C141.048 210.523 141.048 201.045 135.572 193.99C131.255 188.514 124.199 184.933 117.249 186.302C110.404 187.671 104.085 194.095 105.138 201.361C106.086 208.733 113.879 213.577 120.935 211.576C122.725 211.155 121.882 208.101 119.882 208.733Z" fill="#161616"/>
<path d="M142.207 368.063C172.851 371.538 196.756 349.107 219.818 332.574C232.244 323.623 245.092 314.777 258.571 307.511C265.416 303.825 272.682 300.666 280.264 298.981C286.899 297.507 300.694 295.085 305.117 302.14C306.17 303.825 308.908 302.246 307.855 300.561C301.326 290.241 282.686 294.558 273.314 297.612C258.045 302.667 244.249 311.934 230.981 320.885C217.291 330.152 204.548 340.577 190.859 349.844C176.431 359.533 160.003 367.01 142.207 364.903C140.1 364.587 140.206 367.747 142.207 368.063Z" fill="#161616"/>
<path d="M27.6322 150.708C25.6314 181.774 31.5286 212.734 44.692 240.957C45.5345 242.747 48.2725 241.167 47.43 239.377C34.5825 211.681 28.8959 181.142 30.8967 150.708C30.8967 148.708 27.7376 148.708 27.6322 150.708Z" fill="#161616"/>
<path d="M46.6929 243.379C73.2303 240.535 99.0306 233.164 123.041 221.58C124.831 220.738 123.251 218 121.461 218.842C97.9775 230.215 72.7038 237.482 46.6929 240.22C44.6921 240.43 44.6921 243.589 46.6929 243.379Z" fill="#161616"/>
<path d="M118.723 211.997C119.776 214.841 120.934 217.684 121.988 220.527C122.725 222.423 125.779 221.58 125.041 219.685C123.988 216.841 122.83 213.998 121.777 211.155C121.04 209.365 117.986 210.102 118.723 211.997Z" fill="#161616"/>
<path d="M103.98 129.015C105.77 148.602 105.56 169.874 113.142 188.198C113.879 190.093 116.933 189.251 116.196 187.355C108.719 169.243 108.929 148.286 107.245 129.015C106.929 127.014 103.769 127.014 103.98 129.015Z" fill="#161616"/>
<path d="M32.1605 151.34C41.8488 144.285 53.1166 140.283 64.5951 137.019C77.3373 133.438 90.2902 129.542 103.664 130.068C105.665 130.174 105.665 127.014 103.664 126.909C90.0795 126.488 76.8108 130.384 63.7527 133.965C51.9583 137.229 40.4798 141.336 30.5809 148.602C28.896 149.866 30.4756 152.604 32.1605 151.34Z" fill="#161616"/>
<path d="M67.0172 211.892C59.1192 207.996 54.8016 200.098 53.8538 191.568C52.8007 181.985 57.013 175.35 64.5951 169.98C71.8613 164.714 80.3912 160.818 89.1317 165.241C97.7669 169.558 101.663 178.72 103.98 187.566C104.507 189.567 107.561 188.724 107.034 186.724C104.401 176.509 99.4518 166.189 89.237 161.766C79.3381 157.448 69.7552 162.082 61.7519 168.084C53.5379 174.192 49.5362 181.879 50.9052 192.2C52.0635 201.572 57.013 210.312 65.5429 214.525C67.2278 215.578 68.8074 212.84 67.0172 211.892Z" fill="#161616"/>
<path d="M62.9102 212.103C68.0703 218.632 77.232 218.421 84.7089 217.157C93.3441 215.683 102.19 212.208 106.507 204.099C107.455 202.309 104.717 200.729 103.769 202.52C100.084 209.47 92.7122 212.419 85.3407 213.893C78.4957 215.262 69.8605 215.999 65.1217 209.891C63.858 208.206 61.6466 210.523 62.9102 212.103Z" fill="#161616"/>
<path d="M103.98 186.513C104.823 189.567 105.244 192.726 105.349 195.885C105.454 197.886 108.614 197.886 108.508 195.885C108.403 192.41 107.876 189.04 107.034 185.67C106.507 183.67 103.454 184.512 103.98 186.513Z" fill="#161616"/>
<path d="M13.0999 154.184C14.0476 175.35 16.4697 196.307 20.682 217.052C21.7351 222.317 22.8934 227.688 24.2624 232.953C25.1049 236.323 25.7367 240.009 28.4747 242.326C33.3189 246.643 40.7957 244.748 46.2717 242.958C48.1672 242.326 47.3248 239.272 45.4292 239.904C41.9541 241.062 38.2683 242.22 34.6879 241.589C29.1066 240.746 28.2641 235.797 27.1057 231.058C25.1049 222.844 23.42 214.525 21.9457 206.205C18.8917 189.04 17.1015 171.559 16.3644 154.184C16.2591 152.183 13.0999 152.183 13.0999 154.184Z" fill="#161616"/>
<path d="M14.5742 154.815C19.9448 154.605 25.1049 153.762 30.1597 152.077C32.0552 151.446 31.2127 148.392 29.3172 149.024C24.473 150.603 19.6289 151.551 14.4689 151.656C12.5734 151.762 12.5733 154.921 14.5742 154.815Z" fill="#161616"/>
<path d="M15.6272 152.288C27.527 142.916 41.7435 137.229 56.0653 132.806C62.9102 130.7 69.8605 128.594 76.9161 126.909C85.3407 124.803 94.713 123.96 101.874 129.858C103.454 131.121 105.665 128.91 104.085 127.646C91.0272 116.905 72.8091 124.487 58.5927 128.699C42.4806 133.543 26.6845 139.546 13.3105 150.077C11.7309 151.34 14.0476 153.552 15.6272 152.288Z" fill="#161616"/>
<path d="M44.5867 135.544C39.3214 128.067 34.5826 120.169 32.2658 111.218C29.8438 101.951 29.5279 91.8417 28.5801 82.364C28.3695 80.3632 25.2103 80.3632 25.4209 82.364C26.4739 92.1576 26.6845 102.478 29.2119 112.061C31.634 121.222 36.4781 129.436 41.8488 137.124C43.0072 138.809 45.7451 137.229 44.5867 135.544Z" fill="#161616"/>
<path d="M26.6845 80.6791C27.2111 80.3632 26.8952 80.3632 26.6845 79.8367C26.4739 79.3101 26.3687 78.573 26.2634 78.0465C26.158 77.3093 26.2633 75.4138 27.4217 75.5191C28.2642 75.5191 28.2642 77.204 28.2642 77.8358C28.2642 78.2571 28.3695 78.7836 28.1589 79.2048C27.8429 79.8367 27.7376 79.4154 27.9482 79.942C27.2111 78.0464 24.1572 78.8889 24.8944 80.7844C25.9474 83.733 29.8438 83.3118 31.0022 80.6791C32.0553 78.2571 31.5287 73.5182 28.5801 72.6758C25.3156 71.6227 22.8935 74.9925 22.9988 77.9411C23.1041 80.4685 24.5784 85.5233 28.0536 83.6277C30.0544 82.4694 28.4748 79.7314 26.6845 80.6791Z" fill="#161616"/>
<path d="M70.2818 83.2065C75.2312 96.3699 76.8108 110.27 74.4941 124.171C74.1781 126.172 77.2321 127.014 77.548 125.013C79.8648 110.481 78.4958 96.0539 73.3357 82.364C72.5986 80.5738 69.5446 81.3109 70.2818 83.2065Z" fill="#161616"/>
<path d="M70.387 79.942C68.1755 79.4155 68.8074 76.2562 71.0189 76.7828C72.072 76.9934 72.5985 78.2571 72.8091 79.2048C72.8091 79.5208 72.5985 82.0481 71.756 81.311C70.1764 80.0473 67.9649 82.2588 69.5446 83.5224C71.8613 85.5233 75.1258 84.1543 75.863 81.2057C76.6001 78.4677 75.2311 75.2032 72.7038 73.9395C70.2817 72.7811 67.1225 74.0448 66.1747 76.5722C65.1216 79.3101 66.9119 82.2588 69.6499 82.8906C71.5454 83.4171 72.3878 80.3632 70.387 79.942Z" fill="#161616"/>
<path d="M23.42 225.793C17.6281 225.161 11.8362 226.214 6.88677 229.268C3.93817 231.058 -0.90593 234.744 0.147142 238.851C1.30552 243.484 9.94067 244.327 13.5211 245.274C20.682 247.17 27.9482 248.223 35.3197 248.855C37.3206 249.065 37.3206 245.801 35.3197 245.696C26.2633 244.959 17.3122 243.379 8.67701 240.641C6.04432 239.798 2.04267 239.483 4.88597 234.744C5.72843 233.269 8.25575 232.006 9.83536 231.163C14.0477 228.952 18.6812 228.425 23.42 228.952C25.4209 229.162 25.4209 226.003 23.42 225.793Z" fill="#161616"/>
<path d="M34.1613 248.539C40.4798 252.962 47.43 259.491 54.9069 261.808C62.6996 264.124 72.2825 263.282 80.2859 262.65C82.2867 262.545 82.2867 259.386 80.2859 259.491C72.5985 260.017 63.2261 260.965 55.7493 258.754C48.5884 256.648 41.7434 250.013 35.7409 245.801C34.1613 244.643 32.5817 247.381 34.1613 248.539Z" fill="#161616"/>
<path d="M78.1798 261.597C61.0147 306.247 62.9102 362.165 90.5007 402.393C102.716 420.295 121.461 434.512 143.576 437.039C166.638 439.672 191.596 432.3 212.552 423.138C236.457 412.713 257.939 397.233 276.473 378.909C277.948 377.435 275.736 375.224 274.262 376.698C243.196 407.342 201.6 431.458 157.266 434.09C105.138 437.25 77.3373 385.228 71.6507 340.156C68.3862 313.829 71.7561 287.081 81.2337 262.334C81.9709 260.439 78.9169 259.702 78.1798 261.597Z" fill="#161616"/>
<path d="M61.12 207.785C54.8016 201.361 52.1689 191.884 54.4857 183.248C57.7502 171.138 70.4923 161.66 84.077 163.872C99.8731 166.399 105.244 182.827 105.876 191.146C106.086 193.884 106.613 201.572 101.558 206.943C100.189 208.417 98.9253 209.049 96.7138 210.312C92.1856 212.84 86.4991 215.999 78.917 215.683C68.5968 215.156 61.9625 208.627 61.12 207.785Z" fill="#EC615B"/>
<path opacity="0.16" d="M92.1857 122.591C95.029 124.276 97.9776 125.961 100.821 127.751C89.4477 128.699 74.1781 131.121 57.4343 137.65C46.4823 141.863 37.4259 146.812 30.1597 151.446C29.5279 160.923 29.5279 171.981 31.0022 184.196C33.5295 206.205 39.532 224.108 45.2186 237.06C47.9566 239.588 51.3265 242.326 55.4335 244.537C71.8614 253.488 88.9211 250.434 95.3449 248.855C92.1857 257.069 87.7627 269.6 83.5504 285.186C74.2834 318.989 73.125 340.577 70.9136 340.472C68.7021 340.367 67.0172 319.095 70.0711 297.401C72.1773 282.132 76.2843 269.916 79.5488 261.492C74.494 262.124 70.2818 261.808 67.3332 261.492C57.329 260.333 50.0627 256.437 44.7974 253.594C40.5851 251.277 37.2153 248.96 34.8985 247.275C30.5809 246.959 24.789 246.327 17.944 245.274C5.83369 243.379 3.72754 242.01 2.99038 240.114C1.62139 236.745 4.57003 232.216 7.30802 229.9C11.5203 226.319 17.9441 225.793 23.8413 228.32C21.3139 216.947 18.9971 204.099 17.5228 189.988C15.9432 175.456 15.4167 162.082 15.522 150.077C24.8943 144.179 37.3206 137.44 52.5901 131.964C67.7544 126.698 81.339 123.96 92.1857 122.591Z" fill="#606060"/>
<path opacity="0.11" d="M108.719 200.519C110.509 197.465 119.25 197.781 124.831 201.993C131.465 206.943 133.361 217.263 130.518 219.579C128.833 220.843 125.673 219.79 123.883 218.632C120.197 216.21 120.092 211.892 120.092 211.471C119.46 211.471 112.615 211.05 109.667 205.784C109.14 204.836 107.666 202.204 108.719 200.519Z" fill="#606060"/>
<path opacity="0.09" d="M29.7385 152.604C30.3704 161.45 32.2659 174.824 38.5843 189.777C41.1117 195.78 44.1656 203.046 49.3256 209.365C64.8058 228.004 91.6592 228.952 100.716 228.952C85.8673 232.743 71.0189 236.429 56.1706 240.22C76.9161 241.167 101.874 245.274 109.561 261.281C117.354 277.709 99.6625 291.61 95.3449 326.361C95.029 329.099 88.2894 389.44 120.829 411.555C142.417 426.192 171.482 417.031 191.806 410.607C248.356 392.705 282.792 350.055 299.536 324.887C298.061 333.943 294.692 348.16 285.846 363.113C272.788 385.122 255.307 396.285 238.352 407.132C213.816 422.822 192.859 428.825 187.91 430.194C171.061 434.722 157.582 438.408 141.891 435.565C107.561 429.352 88.2893 397.022 84.077 390.072C59.9617 349.739 69.4393 303.404 74.2835 279.921C75.9684 271.917 77.7587 265.388 79.1276 260.86C74.81 261.702 67.3332 262.545 58.5927 260.333C46.1665 257.279 38.2684 250.013 35.1092 246.643C14.0477 246.117 3.09577 243.695 2.35862 239.272C1.83208 236.218 6.04435 232.322 15.1008 227.477C17.7335 227.162 20.3662 226.846 22.8935 226.53C20.1555 202.414 17.3122 178.194 14.5742 154.078C19.629 153.552 24.6838 153.131 29.7385 152.604Z" fill="#606060"/>
<path d="M249.62 514.65C247.619 531.815 245.829 545.716 244.565 554.141C227.465 592.177 429.014 613.245 501.094 579.73C510.045 535.607 517.206 482.953 518.575 423.349C519.628 377.962 516.995 336.786 512.783 300.561C502.989 294.137 487.825 285.502 467.817 279.605C447.492 273.602 431.486 273.076 411.477 272.128C396.524 271.391 376.936 270.548 352.4 274.866C337.552 277.498 315.753 282.974 291.216 295.295C278.895 319.621 272.05 340.262 268.259 353.846C255.096 401.34 259.203 430.299 249.62 514.65Z" fill="#EC615B"/>
<path opacity="0.16" d="M435.803 273.707C438.015 279.078 441.174 287.819 443.596 298.876C452.547 339.84 440.121 361.534 434.645 409.659C428.642 461.997 441.069 465.051 431.696 501.276C423.693 532.342 380.203 581.367 368.619 595.689C452.89 595.689 463.424 592.88 501.199 580.889C502.463 574.044 504.148 564.671 505.938 553.403C508.36 538.766 512.678 512.018 515.521 484.533C519.101 449.676 519.101 422.717 519.101 401.972C519.101 374.381 517.838 340.156 513.731 300.771C509.413 298.033 503.41 294.558 496.039 290.872C488.141 286.976 476.662 281.395 460.972 277.604C454.548 276.024 446.123 274.339 435.803 273.707Z" fill="#606060"/>
<path opacity="0.13" d="M512.677 301.824C509.308 316.673 504.358 339.63 499.514 368.063C488.141 434.722 490.352 455.257 479.4 486.744C471.713 508.858 438.765 563.956 404.434 596.391C452.89 596.391 473.256 585.857 500.146 579.73C508.781 540.451 513.099 506.436 515.31 480.11C519.522 431.036 518.048 392.389 516.995 364.061C515.942 338.893 514.257 317.62 512.677 301.824Z" fill="#606060"/>
<path d="M488.141 296.98C485.93 298.244 483.192 301.403 477.821 307.616C474.346 311.618 472.661 313.619 471.292 315.62C467.922 320.674 466.448 325.729 464.763 337.523C463.078 349.107 462.235 355.004 462.025 362.587C461.604 380.805 464.342 397.127 468.027 415.451C475.083 450.202 478.242 454.836 482.244 478.003C485.614 497.591 486.772 513.702 487.193 523.917C483.507 528.235 478.242 534.764 472.45 543.189C461.498 559.195 455.917 571.622 452.337 578.993C446.018 591.735 435.171 609.427 415.795 629.751C413.057 630.172 408.739 630.488 403.79 629.225C395.471 627.013 394.312 622.38 385.782 620.168C382.728 619.326 384.097 620.273 370.513 619.642C360.93 619.22 358.086 618.589 355.243 620.695C352.611 622.59 350.504 626.381 351.452 629.751C352.611 633.753 357.876 636.701 363.984 635.648C355.559 637.754 349.662 641.124 345.976 643.652C341.448 646.811 332.708 652.813 333.971 658.605C334.708 661.975 338.815 664.608 339.447 665.029C341.553 666.398 343.659 666.925 344.923 667.135C345.028 667.767 345.976 671.663 349.873 674.086C354.085 676.718 358.508 675.349 359.14 675.139C360.087 677.034 361.878 679.983 365.142 682.089C371.039 685.775 379.359 685.353 386.414 681.036C386.309 683.142 386.625 686.091 388.626 687.986C391.574 690.829 396.84 689.882 403.895 687.986C422.745 683.037 432.223 680.509 437.699 674.086C440.016 671.348 444.649 665.029 445.913 654.288C463.71 641.23 477.4 629.225 486.772 620.589C513.941 595.632 536.266 574.57 550.483 541.504C557.749 524.549 560.171 510.965 560.803 506.226C562.804 493.168 562.488 482.216 560.803 463.998C559.013 444.726 556.064 423.033 549.325 388.703C548.482 384.596 543.006 357.005 530.79 324.571C527.526 315.83 522.682 304.141 511.203 298.349C509.624 297.928 497.092 291.82 488.141 296.98Z" fill="white"/>
<path d="M487.193 295.717C463.92 312.355 459.287 345.422 460.235 371.959C461.393 405.131 471.713 436.828 478.874 468.947C483.086 487.797 486.14 506.858 485.719 526.234C485.719 528.235 488.878 528.235 488.878 526.234C489.826 486.323 475.925 448.623 468.133 409.975C464.131 389.861 461.709 369.116 464.342 348.581C466.658 330.047 472.977 309.828 488.773 298.455C490.353 297.296 488.773 294.558 487.193 295.717Z" fill="#161616"/>
<path d="M497.092 519.284C476.978 527.708 467.29 548.875 456.97 566.672C444.017 589.103 430.538 611.217 412.425 629.962C411.056 631.436 413.268 633.648 414.637 632.173C431.17 615.114 444.017 595.105 455.917 574.57C466.764 556.036 476.662 531.184 497.829 522.232C499.83 521.495 498.988 518.441 497.092 519.284Z" fill="#161616"/>
<path d="M486.772 300.034C500.041 291.188 514.679 301.824 521.734 313.303C528.79 324.676 533.529 337.839 537.741 350.476C546.587 377.119 551.325 404.92 554.695 432.721C557.96 459.891 562.699 489.061 557.644 516.23C552.589 543.189 534.898 565.83 517.522 586.259C497.724 609.427 475.188 629.962 450.441 647.653C448.756 648.812 450.336 651.55 452.021 650.391C475.504 633.648 497.092 614.271 516.153 592.683C534.371 571.938 553.748 548.454 559.961 520.863C566.49 491.693 561.224 460.101 557.749 430.826C554.169 401.234 548.798 371.538 538.794 343.315C533.95 329.731 528.579 314.145 518.47 303.509C510.045 294.663 496.25 290.03 485.298 297.296C483.508 298.455 485.087 301.193 486.772 300.034Z" fill="#161616"/>
<path d="M362.931 633.753C360.298 633.226 355.243 632.7 353.769 630.278C353.769 627.856 353.874 625.539 353.874 623.117C354.717 622.59 355.559 622.274 356.507 622.064C357.876 621.642 359.35 621.537 360.825 621.432C367.354 620.695 375.673 619.115 381.991 621.221C387.362 623.011 392.101 626.592 397.366 628.593C402.842 630.594 408.529 631.857 414.321 632.489C416.321 632.7 416.321 629.54 414.321 629.33C409.055 628.698 404 627.645 399.051 625.855C393.996 624.065 389.679 621.221 384.835 619.01C377.252 615.535 367.354 617.43 359.455 618.378C354.927 618.904 349.135 620.589 348.714 626.065C348.188 633.332 356.296 635.859 361.878 636.912C364.089 637.123 364.931 634.069 362.931 633.753Z" fill="#161616"/>
<path d="M377.568 635.016C370.407 632.384 363.036 633.648 356.086 636.491C349.978 638.913 342.922 641.651 338.499 646.6C335.761 649.549 330.601 657.236 331.865 661.659C333.234 666.293 340.395 668.82 344.712 667.978C346.713 667.556 345.871 664.503 343.87 664.924C337.552 666.187 334.287 660.817 336.498 655.973C337.13 654.498 337.867 653.129 338.605 651.76C341.237 647.548 345.028 645.231 349.346 643.125C357.876 638.913 367.143 634.701 376.726 638.176C378.621 638.808 379.464 635.754 377.568 635.016Z" fill="#161616"/>
<path d="M382.202 645.126C370.197 646.916 350.926 649.022 344.502 661.238C339.131 671.453 351.347 680.72 360.614 675.876C362.404 674.928 360.825 672.19 359.034 673.138C353.137 676.192 344.818 671.453 346.608 664.397C347.766 659.553 353.137 656.605 357.349 654.604C365.353 650.813 374.409 649.444 383.044 648.075C385.045 647.864 384.203 644.81 382.202 645.126Z" fill="#161616"/>
<path d="M452.968 645.968C446.545 648.706 444.333 654.709 442.438 661.027C440.753 666.819 438.647 671.558 433.276 674.823C428.853 677.455 423.693 678.824 418.849 680.509C413.689 682.299 408.529 684.195 403.369 685.985C401.052 686.828 398.63 687.881 396.208 688.513C394.944 688.934 393.68 689.144 392.417 689.25C388.415 687.67 387.257 685.248 389.152 682.194C391.258 677.982 396.734 674.401 400.42 671.769C404.527 668.925 408.845 666.714 413.478 665.029C415.374 664.397 414.531 661.343 412.636 661.975C407.16 663.871 402.105 666.609 397.471 669.979C393.575 672.822 388.836 676.192 386.414 680.509C384.835 683.353 384.519 687.144 386.625 689.776C389.257 693.041 393.47 692.514 397.05 691.461C404 689.46 410.845 686.512 417.796 684.09C423.482 682.089 429.59 680.404 434.855 677.35C438.857 675.033 441.806 671.874 443.596 667.556C446.229 661.238 446.439 652.076 453.811 648.917C455.706 648.285 454.864 645.231 452.968 645.968Z" fill="#161616"/>
<path d="M394.418 658.079C386.309 659.027 377.779 659.974 370.092 662.712C365.247 664.397 357.244 668.82 356.718 674.717C356.086 680.931 364.826 683.879 369.67 684.616C377.252 685.775 385.151 683.353 391.364 679.035C393.049 677.877 391.469 675.139 389.784 676.297C385.151 679.456 379.99 681.457 374.304 681.668C368.617 681.878 354.927 677.771 363.036 670.505C370.934 663.344 384.308 662.396 394.418 661.133C396.418 661.027 396.418 657.868 394.418 658.079Z" fill="#161616"/>
<path opacity="0.09" d="M496.882 297.086C489.089 302.667 504.99 333.732 515.942 364.272C527.421 395.969 543.533 440.619 537.109 488.008C530.369 537.713 501.094 573.728 483.402 595.421C465.289 617.641 446.966 633.226 433.171 643.441C371.461 658.5 358.508 667.872 358.929 673.875C359.14 676.508 362.088 679.983 365.247 681.668C373.461 686.091 383.571 680.404 385.045 679.562C385.045 682.089 385.466 688.197 389.258 690.198C391.996 691.567 395.049 690.198 398.419 688.829C415.9 681.668 417.901 685.248 429.485 678.193C433.802 675.56 436.962 673.559 440.121 669.663C445.597 662.923 446.861 655.341 447.177 651.234C457.391 643.862 469.818 634.279 483.192 622.274C502.989 604.583 523.63 585.943 541.111 556.563C548.798 543.715 555.432 532.342 558.802 515.598C561.751 500.539 560.382 489.903 558.065 468.947C551.22 404.604 553.642 409.659 551.747 398.918C547.85 377.54 546.376 380.384 534.055 336.049C533.95 335.733 531.106 325.308 524.156 313.408C519.944 306.247 517.206 303.404 514.257 301.403C509.624 297.928 500.673 294.453 496.882 297.086Z" fill="#606060"/>
<path opacity="0.1" d="M557.749 469.263C555.432 469.052 553.747 481.584 547.429 500.96C536.477 534.448 522.682 557.826 508.149 577.519C493.617 597.106 474.03 621.748 448.861 648.601C480.98 624.591 504.358 601.529 519.944 584.469C545.217 556.879 551.536 543.61 555.116 533.395C565.858 502.224 561.435 469.579 557.749 469.263Z" fill="#606060"/>
<path opacity="0.11" d="M390.416 686.933C389.889 685.143 397.471 681.562 412.636 674.191C425.483 667.978 435.909 662.712 443.069 659.132C442.227 664.503 440.121 671.348 434.54 674.823C432.96 675.77 431.907 676.086 429.59 676.824C415.795 681.141 413.794 684.932 404 686.933C398.735 688.091 390.837 688.618 390.416 686.933Z" fill="#606060"/>
<path opacity="0.1" d="M360.509 671.558C366.09 671.979 374.304 672.085 384.097 670.61C400.736 668.083 413.267 661.975 413.583 662.712C413.794 663.239 408.529 665.345 400.104 670.294C390.205 676.086 390.205 677.561 384.729 679.772C382.097 680.825 368.828 686.301 363.141 680.404C360.719 677.877 360.403 673.98 360.509 671.558Z" fill="#606060"/>
<path d="M224.557 117.115C223.504 121.96 223.293 126.909 223.504 136.597C223.714 145.443 224.346 164.82 232.56 188.514C236.983 201.361 242.775 218.105 257.623 235.375C257.623 235.375 278.685 259.701 309.856 269.495C318.491 272.233 325.336 272.97 332.497 271.496C340.711 269.916 346.608 265.915 349.872 263.282C351.663 266.125 354.19 270.759 355.454 276.972C357.455 286.555 354.611 290.767 357.876 298.139C358.613 299.824 361.456 305.826 367.985 309.091C374.62 312.355 381.149 310.776 386.835 309.407C391.048 308.353 400.42 305.51 407.791 297.086C410.319 294.137 414.32 289.609 414.426 283.396C414.426 279.289 412.741 276.235 412.004 274.866C410.214 271.601 407.791 262.65 402.947 244.748C399.683 232.743 400.104 223.16 400.841 204.099C401.262 194.411 402.315 181.563 405.369 166.505C407.476 167.663 411.477 169.348 416.216 168.505C424.535 167.031 428.642 158.712 430.538 154.815C431.064 153.762 439.91 134.912 429.169 121.644C428.116 120.38 419.586 110.165 410.003 113.114C403.053 115.22 400.315 122.802 399.893 124.066C397.682 121.433 395.471 118.379 393.259 114.799C387.888 105.848 385.361 97.3176 384.203 90.8939C362.931 91.8417 346.187 89.4196 334.708 87.1028C311.014 82.2587 303.748 76.1509 282.897 75.9403C270.155 75.7297 254.991 75.6244 242.248 85.8392C228.98 96.6858 225.505 112.692 224.557 117.115Z" fill="white"/>
<path d="M222.24 126.804C220.344 167.874 231.402 210.418 260.783 240.43C273.63 253.594 289.426 264.019 307.012 269.706C316.069 272.654 326.178 275.076 335.551 272.338C345.239 269.39 354.295 262.861 362.615 257.069C381.465 243.905 398.208 226.319 402.842 203.151C403.263 201.151 400.209 200.308 399.788 202.309C395.681 222.739 381.781 238.851 365.458 251.172C357.77 256.963 349.451 262.545 340.816 266.862C330.707 271.917 320.702 270.653 310.172 267.494C274.788 256.858 247.619 227.477 234.982 193.358C227.189 172.191 224.451 149.445 225.505 126.909C225.505 124.803 222.345 124.803 222.24 126.804Z" fill="#161616"/>
<path d="M349.873 265.388C353.242 274.55 355.454 283.922 356.612 293.716C356.823 295.716 359.982 295.716 359.771 293.716C358.613 283.711 356.402 274.023 352.926 264.651C352.189 262.65 349.135 263.492 349.873 265.388Z" fill="#161616"/>
<path d="M399.578 205.995C398.524 218.526 399.156 231.163 401.473 243.59C402.737 250.013 404.422 256.332 406.528 262.545C408.845 269.284 412.32 276.129 411.898 283.396C411.161 295.401 400.209 304.141 389.573 307.511C378.095 311.197 357.771 309.196 359.245 292.663C359.455 290.662 356.296 290.662 356.086 292.663C355.033 304.878 366.616 312.25 377.568 312.566C389.573 312.776 402.421 306.984 409.792 297.402C419.27 284.87 412.952 272.233 408.739 258.964C403.158 241.905 401.262 224.002 402.737 206.1C402.842 203.994 399.683 203.994 399.578 205.995Z" fill="#161616"/>
<path d="M353.453 264.967C368.301 257.174 380.727 245.696 389.468 231.479C390.521 229.794 387.783 228.109 386.73 229.9C378.2 243.8 366.195 254.752 351.768 262.334C350.083 263.282 351.663 265.915 353.453 264.967Z" fill="#161616"/>
<path d="M353.663 266.862C362.825 262.334 370.407 255.7 377.568 248.434C384.203 241.694 390.31 234.533 393.996 225.687C394.733 223.792 391.679 222.949 390.942 224.845C387.257 233.691 380.727 240.746 374.093 247.486C367.564 254.12 360.508 260.017 352.084 264.124C350.188 264.967 351.768 267.705 353.663 266.862Z" fill="#161616"/>
<path d="M354.611 268.758C372.829 258.648 387.362 243.274 395.997 224.318C396.84 222.528 394.102 220.843 393.259 222.739C384.834 241.167 370.723 256.226 353.032 266.02C351.241 266.968 352.926 269.706 354.611 268.758Z" fill="#161616"/>
<path d="M283.634 140.178C283.845 159.028 285.319 177.772 287.847 196.412C287.952 197.36 289.426 197.886 290.163 197.36C296.482 192.726 302.063 187.461 307.223 181.564C308.592 179.984 306.275 177.772 305.012 179.352C300.062 185.039 294.692 190.199 288.584 194.727C289.321 195.043 290.163 195.359 290.901 195.675C288.373 177.351 287.004 158.817 286.794 140.283C286.794 138.072 283.634 138.072 283.634 140.178Z" fill="#161616"/>
<path d="M259.414 164.609C256.886 163.345 254.885 161.45 253.727 158.817C252.779 156.816 250.989 149.234 255.623 150.498C258.255 151.235 260.361 155.342 261.099 157.659C261.52 158.922 261.941 160.502 261.625 161.871C261.73 163.345 260.993 164.398 259.414 164.925C258.676 164.398 258.15 163.767 257.623 163.029C256.36 161.45 254.148 163.661 255.412 165.241C258.676 169.453 263.731 168.821 264.679 163.24C265.627 157.553 262.678 151.551 258.15 148.286C253.411 144.917 249.725 147.865 249.515 153.236C249.304 159.133 252.779 164.504 257.939 167.136C259.624 168.295 261.204 165.557 259.414 164.609Z" fill="#161616"/>
<path d="M251.831 151.867C252.99 157.343 255.622 162.187 259.519 166.189C260.677 167.452 262.467 166.083 262.152 164.609C261.204 159.554 256.254 155.658 256.676 150.393C255.728 150.814 254.885 151.13 253.938 151.551C256.992 155.131 258.782 159.133 259.624 163.767C260.151 163.135 260.677 162.398 261.098 161.766C257.834 161.766 255.938 158.712 254.464 156.29C253.411 154.605 250.673 156.184 251.726 157.869C253.832 161.345 256.57 164.925 261.098 164.925C262.257 164.925 262.783 163.872 262.573 162.924C261.73 157.764 259.414 153.236 256.149 149.339C255.201 148.181 253.516 149.234 253.411 150.498C252.99 156.29 258.045 160.081 258.992 165.557C259.835 165.03 260.783 164.504 261.625 163.977C258.045 160.291 255.833 155.974 254.675 151.024C254.464 149.024 251.41 149.866 251.831 151.867Z" fill="#161616"/>
<path d="M336.709 155.447C334.182 154.184 332.181 152.288 331.022 149.655C330.075 147.655 328.285 140.072 332.918 141.336C335.551 142.073 337.657 146.18 338.394 148.497C338.815 149.761 339.236 151.34 338.921 152.709C339.026 154.184 338.289 155.237 336.709 155.763C335.972 155.237 335.445 154.605 334.919 153.868C333.655 152.288 331.444 154.5 332.707 156.079C335.972 160.291 341.027 159.66 341.974 154.078C342.922 148.392 339.974 142.389 335.445 139.125C330.707 135.755 327.021 138.703 326.81 144.074C326.6 149.971 330.075 155.342 335.235 157.975C336.92 159.133 338.499 156.395 336.709 155.447Z" fill="#161616"/>
<path d="M329.022 142.6C330.18 148.076 332.813 152.92 336.709 156.922C337.868 158.185 339.658 156.816 339.342 155.342C338.394 150.287 333.445 146.391 333.866 141.126C332.918 141.547 332.076 141.863 331.128 142.284C334.182 145.864 335.972 149.866 336.814 154.5C337.341 153.868 337.868 153.131 338.289 152.499C335.024 152.499 333.129 149.445 331.654 147.023C330.601 145.338 327.863 146.917 328.916 148.602C331.023 152.078 333.761 155.658 338.289 155.658C339.447 155.658 339.974 154.605 339.763 153.657C338.921 148.497 336.604 143.969 333.339 140.072C332.392 138.914 330.707 139.967 330.601 141.231C330.18 147.023 335.235 150.814 336.183 156.29C337.025 155.763 337.973 155.237 338.815 154.71C335.235 151.024 333.023 146.707 331.865 141.757C331.654 139.862 328.601 140.704 329.022 142.6Z" fill="#161616"/>
<path d="M237.931 132.49C240.564 122.381 253.411 120.064 259.519 128.594C260.677 130.279 263.415 128.699 262.257 127.014C254.675 116.378 238.352 118.8 234.982 131.648C234.35 133.649 237.404 134.386 237.931 132.49Z" fill="#161616"/>
<path d="M316.174 118.274C322.598 104.268 339.552 111.113 346.713 120.38C347.977 121.96 350.715 120.38 349.451 118.8C344.923 112.798 338.605 107.743 330.812 107.111C323.651 106.479 316.49 110.06 313.436 116.694C312.594 118.484 315.332 120.064 316.174 118.274Z" fill="#161616"/>
<path d="M279.001 223.265C272.366 211.05 287.952 212.208 295.639 211.471C303.748 210.734 311.646 208.206 318.702 204.099C326.284 199.782 331.128 193.042 337.762 187.777C340.606 185.46 344.818 182.827 348.714 184.933C351.979 186.724 353.242 191.357 353.558 194.622C354.085 199.571 352.821 204.626 351.031 209.259C345.976 222.844 336.499 234.112 322.493 238.745C306.591 243.905 288.057 237.587 279.001 223.265C277.948 221.58 275.21 223.16 276.263 224.845C283.74 236.745 297.851 244.221 311.857 243.695C326.178 243.274 339.868 234.954 347.766 223.265C354.401 213.366 363.247 192.2 351.663 182.932C345.239 177.772 337.446 183.564 332.708 188.198C325.125 195.675 317.965 202.204 307.644 205.679C302.063 207.574 296.376 208.312 290.479 208.522C286.583 208.627 282.581 208.627 279.001 210.523C272.788 213.893 273.209 219.369 276.263 224.845C277.211 226.635 279.949 225.055 279.001 223.265Z" fill="#161616"/>
<path d="M277.211 223.476C306.275 225.371 334.076 211.155 348.925 185.986C349.978 184.196 347.24 182.617 346.187 184.407C331.865 208.733 305.222 222.212 277.211 220.317C275.21 220.211 275.21 223.37 277.211 223.476Z" fill="#161616"/>
<path d="M397.787 213.156C390.521 236.113 374.514 255.279 353.348 266.862C351.557 267.81 353.137 270.548 354.927 269.6C376.726 257.595 393.259 237.798 400.736 213.998C401.368 212.103 398.419 211.26 397.787 213.156Z" fill="#161616"/>
<path d="M400.947 126.488C402.105 118.063 410.846 114.062 418.638 116.694C426.431 119.432 430.749 127.014 431.802 134.807C432.96 142.705 431.275 151.13 427.273 158.08C423.167 165.136 413.899 171.665 406.317 164.925C404.843 163.556 402.526 165.767 404.106 167.136C411.372 173.665 421.482 170.612 427.273 163.661C434.013 155.553 436.646 143.653 434.856 133.333C433.171 123.645 426.747 114.588 416.532 112.798C408.002 111.324 399.156 116.694 397.893 125.54C397.682 127.646 400.736 128.489 400.947 126.488Z" fill="#161616"/>
<path d="M377.568 115.325C378.095 118.169 378.516 123.96 382.728 126.488C387.151 129.12 393.47 126.804 398.208 124.487C398.419 123.96 402.105 114.588 411.372 113.008C418.849 111.745 424.43 116.378 426.22 117.747C432.644 123.013 433.908 130.384 434.645 134.596C436.119 142.81 434.013 149.234 432.96 152.92C432.012 156.079 430.748 159.87 427.379 163.767C426.01 165.346 423.693 167.979 420.007 169.558C413.583 172.191 407.16 169.558 405.264 168.716C403.368 170.296 400.841 172.612 398.735 175.982C398.735 175.982 398.524 176.298 398.314 176.614C395.049 182.09 397.893 194.2 398.314 200.94C398.524 204.942 398.103 210.839 394.628 218.21C398.524 220.001 411.267 225.161 426.641 221.159C431.064 220.001 442.438 216.947 450.652 205.995C459.813 193.779 458.444 180.405 458.023 177.246C463.288 172.507 465.921 167.768 467.185 164.82C468.027 162.924 473.714 149.55 468.027 143.653C465.71 141.336 463.71 142.284 461.814 140.283C459.287 137.756 458.55 131.648 466.237 116.168C467.922 116.168 468.87 115.641 469.501 115.22C472.45 112.798 471.292 105.532 466.448 97.2123C472.977 93.6319 479.506 90.0514 486.035 86.5763C480.98 86.1551 473.714 84.8914 467.079 80.2579C457.286 73.5182 456.022 64.5671 449.493 55.5107C444.438 48.4551 435.382 39.9252 417.374 34.2386C421.481 31.3953 427.273 26.9724 433.276 20.7593C437.699 16.1257 447.387 4.96317 445.386 2.5411C444.017 0.961493 438.331 4.33134 431.275 6.96402C418.217 11.7028 407.265 10.9657 390.31 9.70199C367.459 7.91176 365.037 3.9101 345.976 1.59334C333.444 0.0137343 309.75 -2.61896 283.424 6.64808C258.676 15.3886 243.723 30.4475 237.194 37.0819C231.191 43.1897 216.238 59.8283 208.234 85.102C204.338 97.3176 200.652 109.955 207.181 121.328C211.288 128.383 217.712 132.174 222.029 134.175C221.608 127.225 221.713 113.746 229.927 101.003C242.143 82.1534 263.942 77.8358 279.948 74.6766C292.691 72.1492 321.755 66.4626 347.556 82.4693C357.244 88.4718 374.83 99.3185 377.568 115.325Z" fill="#5222D0"/>
<path d="M277.421 222.949C278.79 225.582 281.528 229.689 286.162 233.48C287.215 234.322 292.164 238.219 299.746 240.325C311.541 243.484 321.861 240.22 325.862 238.64C338.078 233.796 344.186 224.95 346.713 221.054C349.451 216.947 354.611 209.154 354.295 198.307C354.085 191.778 351.979 186.724 350.504 183.775C349.451 184.828 347.977 186.408 346.187 188.303C340.079 194.832 336.183 199.782 334.919 201.361C327.231 210.523 315.648 215.683 311.962 217.263C298.061 223.37 285.109 223.581 277.421 222.949Z" fill="black"/>
<path d="M235.719 41.9261C230.559 47.0862 227.295 52.4569 225.399 55.7214C219.081 66.3574 216.869 75.6245 215.29 82.2588C213.394 90.5781 211.393 103.11 212.657 118.59C212.973 122.276 215.184 125.224 218.238 126.172C220.345 126.804 222.135 126.277 222.977 125.961C223.609 121.96 225.189 115.957 229.085 109.639C235.93 98.3708 245.829 93.1055 251.621 90.1569C263.415 84.1544 273.841 83.2066 280.791 82.5747C296.692 81.311 308.592 84.6809 311.225 85.418C322.493 88.6826 330.707 93.9479 336.183 97.4231C346.397 103.847 347.872 107.111 357.349 111.218C367.88 115.852 374.304 115.536 376.41 115.325C379.674 115.115 385.677 114.588 391.258 110.165C396.313 106.164 398.208 101.003 398.946 98.6867C408.845 103.004 416.111 107.533 420.955 110.902C432.433 118.8 438.857 126.067 454.337 134.807C456.97 136.281 459.287 137.44 460.656 138.177C462.341 131.227 464.026 124.276 465.71 117.431C463.499 115.852 460.235 113.535 456.128 110.692C441.279 100.372 431.17 93.4214 418.006 86.5764C414.215 84.5756 408.739 81.9429 401.789 78.9943C403.263 73.3077 405.159 62.8823 401.473 51.1932C400.104 46.7703 397.893 40.0306 391.679 34.5546C387.783 31.1848 383.887 29.6052 381.57 28.868C355.138 19.3904 327.021 18.9691 327.021 18.9691C311.646 18.7585 291.006 18.6532 266.574 25.7088C251.516 30.0264 242.67 34.9758 235.719 41.9261Z" fill="white"/>
<path d="M224.452 125.751C231.823 85.5232 287.425 75.0978 319.544 89.6302C328.39 93.6319 336.709 98.6867 344.923 103.741C352.084 108.164 359.456 112.693 367.669 114.693C379.78 117.642 394.839 113.851 399.156 101.003C399.788 99.1079 396.734 98.2654 396.102 100.161C393.154 109.007 383.466 113.008 374.725 112.693C364.931 112.271 356.191 106.901 348.082 102.056C332.813 92.7894 317.017 82.4693 298.693 80.6791C267.943 77.7305 227.821 90.6833 221.503 125.013C220.976 126.804 224.03 127.751 224.452 125.751Z" fill="#161616"/>
<path d="M221.292 123.013C219.713 122.697 218.133 122.381 216.448 122.065C216.132 121.222 215.711 120.38 215.395 119.537C214.974 118.484 214.763 117.326 214.553 116.168C214.131 113.746 214.026 111.218 213.921 108.691C213.816 103.847 214.026 98.8973 214.447 94.0531C215.185 83.6277 217.08 73.2023 221.608 63.7246C229.928 46.1383 246.777 34.3439 264.784 28.0255C284.687 21.0752 306.381 19.6009 327.337 20.1274C347.45 20.654 370.092 22.4442 387.573 33.2908C399.156 40.4517 400.525 54.1417 400.841 66.7785C401.157 78.9942 399.262 90.9992 395.365 102.478C394.733 104.373 397.787 105.216 398.419 103.32C402.421 91.5258 404.422 79.2048 404.001 66.7785C403.685 56.669 403.053 43.4003 395.681 35.7129C388.204 27.8148 376.094 23.9185 365.774 21.4964C353.558 18.6531 340.816 17.4947 328.285 17.0735C283.95 15.5992 225.926 25.814 213.921 76.3615C210.972 88.4718 209.603 102.478 211.183 114.904C211.709 118.8 212.762 123.96 216.132 126.488C218.87 128.489 222.661 127.857 224.03 124.698C224.873 122.802 222.135 121.222 221.292 123.013Z" fill="#161616"/>
<path d="M216.975 120.38C224.241 93.5267 247.83 73.2024 274.894 68.3582C289.742 65.7255 305.222 67.5158 319.228 72.9917C333.761 78.573 344.291 88.2613 355.664 98.5814C365.879 107.954 379.674 116.062 393.575 109.639C395.365 108.796 393.786 106.058 391.995 106.901C374.514 115.009 359.877 97.8443 348.504 87.4188C338.183 78.0465 325.757 71.0962 312.278 67.3052C285.951 59.9336 257.623 65.4096 236.878 83.4172C225.926 93.0001 217.817 105.532 214.026 119.538C213.394 121.538 216.448 122.381 216.975 120.38Z" fill="#161616"/>
<path d="M398.103 98.4761C419.27 111.324 439.91 125.013 460.129 139.23C461.814 140.388 463.394 137.65 461.709 136.492C441.49 122.17 420.85 108.586 399.683 95.7381C397.998 94.685 396.418 97.423 398.103 98.4761Z" fill="#161616"/>
<path d="M402 78.8889C423.482 90.8939 444.333 104.057 464.342 118.379C466.027 119.538 467.606 116.8 465.921 115.641C445.808 101.319 425.062 88.1559 403.579 76.1509C401.789 75.0978 400.21 77.8358 402 78.8889Z" fill="#161616"/>
<path d="M463.71 116.378C461.498 123.118 460.024 129.858 459.181 136.913C458.971 138.914 462.13 138.914 462.341 136.913C463.078 130.174 464.552 123.644 466.763 117.221C467.395 115.325 464.341 114.483 463.71 116.378Z" fill="#161616"/>
<path d="M272.577 68.8847C289.637 52.5621 306.802 36.45 324.177 20.338C325.652 18.969 323.44 16.7576 321.966 18.1266C304.696 34.1333 287.425 50.3506 270.365 66.6732C268.891 68.0422 271.103 70.2537 272.577 68.8847Z" fill="#161616"/>
<path d="M315.332 70.2537C330.707 54.9841 346.081 39.7146 361.456 24.3397C362.931 22.8654 360.614 20.654 359.245 22.1283C343.87 37.3978 328.495 52.6674 313.12 68.0423C311.646 69.5166 313.857 71.728 315.332 70.2537Z" fill="#161616"/>
<path opacity="0.15" d="M246.777 91.947C246.25 87.7347 245.724 83.6277 245.197 79.4154C250.147 76.0456 258.361 71.2015 269.207 68.4635C292.48 62.461 312.067 69.8325 321.018 73.2023C327.758 75.7297 335.761 78.6783 344.081 85.7339C350.504 91.2098 350.399 93.5266 358.192 99.845C365.353 105.742 372.303 111.218 381.254 110.797C386.625 110.586 390.837 108.27 393.259 106.585C395.576 103.32 397.787 99.9503 400.104 96.6858C402.526 97.0017 417.69 99.3185 424.641 111.85C425.694 113.64 425.378 114.377 427.8 121.222C432.118 133.543 433.276 133.859 434.118 137.966C434.329 138.914 436.54 152.288 427.273 161.029C420.112 167.874 410.529 167.452 408.423 167.347C405.369 175.772 404.843 183.038 404.738 187.777C404.738 195.043 404.632 203.889 410.529 211.787C412.636 214.63 417.374 221.054 425.694 221.686C435.698 222.423 442.332 214.103 442.964 213.366C429.064 215.999 415.058 218.632 401.157 221.159C401.052 232.322 402.737 240.957 404.316 246.749C408.107 261.07 413.583 267.284 413.162 279.183C412.952 286.555 410.424 292.557 408.423 296.454C402 278.446 395.471 260.544 389.047 242.536C382.097 247.907 375.146 253.383 368.091 258.754C370.829 252.856 373.672 246.854 376.41 240.957C379.99 225.371 380.728 211.892 380.622 201.782C380.412 186.934 376.41 172.191 368.617 142.705C363.878 125.013 360.614 115.536 351.873 107.638C348.819 104.9 345.344 102.899 338.289 98.792C322.809 89.8408 315.121 85.3126 305.854 83.1012C286.583 78.573 269.523 83.733 261.414 86.2604C255.201 88.0506 250.252 90.1568 246.777 91.947Z" fill="#606060"/>
<path opacity="0.13" d="M283.424 139.441C281.107 149.55 279.106 160.713 277.632 172.928C276.895 179.668 276.368 186.092 276.052 192.305C280.58 193.358 285.109 194.411 289.637 195.464C287.531 176.825 285.53 158.185 283.424 139.441Z" fill="#606060"/>
<path opacity="0.09" d="M395.471 153.973C394.102 161.45 392.311 169.243 389.995 177.351C379.253 214.525 361.351 243.274 345.028 264.019C347.135 263.071 381.675 246.643 392.733 221.791C395.681 215.262 398.103 209.786 398.209 202.098C398.419 192.2 394.733 188.408 397.261 181.037C399.788 173.981 404.738 173.034 405.054 167.768C405.37 162.187 400.104 157.343 395.471 153.973Z" fill="#606060"/>
<path opacity="0.1" d="M254.675 80.995C254.043 85.5233 259.203 89.6302 261.836 91.7364C276.579 103.636 289.953 93.1054 315.964 98.3707C337.973 102.899 342.185 113.324 364.931 113.64C372.935 113.746 379.464 112.587 383.781 111.639C380.728 111.008 376.094 109.639 371.039 107.006C362.299 102.478 357.139 96.7911 355.243 94.7903C345.028 83.9436 326.705 72.8864 313.436 68.7794C287.636 60.6707 256.149 70.7802 254.675 80.995Z" fill="#606060"/>
</svg>
